<svg width="36" height="36" viewBox="0 0 36 36" fill="none" xmlns="http://www.w3.org/2000/svg">
<mask id="mask0_1541_162653" style="mask-type:alpha" maskUnits="userSpaceOnUse" x="2" y="2" width="32" height="32">
<rect x="2" y="2" width="32" height="32" fill="#EEEEEE"/>
</mask>
<g mask="url(#mask0_1541_162653)">
<path d="M5.66667 14.3333C5.66667 7.52181 11.1885 2 18 2V2C24.8115 2 30.3333 7.52182 30.3333 14.3333V22.013C30.3333 22.8675 30.6734 23.687 31.2784 24.2905V24.2905C33.0189 26.0265 31.7894 29 29.3312 29H6.66876C4.21057 29 2.98114 26.0265 4.72156 24.2905V24.2905C5.32662 23.687 5.66667 22.8675 5.66667 22.013V14.3333Z" fill="#EEEEEE"/>
<path d="M13 29C13 31.7614 15.2386 34 18 34V34C20.7614 34 23 31.7614 23 29V26.5H13V29Z" fill="#EEEEEE"/>
</g>
</svg>
