<svg width="64" height="64" viewBox="0 0 64 64" fill="none" xmlns="http://www.w3.org/2000/svg">
<circle cx="32" cy="32" r="28" fill="#92D4FF"/>
<mask id="mask0_1541_162613" style="mask-type:luminance" maskUnits="userSpaceOnUse" x="4" y="4" width="56" height="56">
<circle cx="32" cy="32" r="28" fill="white"/>
</mask>
<g mask="url(#mask0_1541_162613)">
<path d="M55.8807 32.7534C53.7147 30.2608 49.8361 28.6227 46.7413 30.0502C46.0908 30.3611 45.5272 30.8293 45.1012 31.4129C44.2348 32.6177 43.8036 34.9037 44.8997 36.5256C47.0777 39.7654 47.4565 45.2648 46.3101 47.4394C45.8809 48.2494 45.1012 48.8062 44.1864 48.7819C43.7929 48.7724 43.409 48.6578 43.0742 48.4498L46.7151 58.8291C50.2329 58.3812 53.4329 56.5572 55.6207 53.7529C58.097 50.5516 62.4793 40.3424 55.8807 32.7534Z" fill="#FFE783"/>
<path d="M46.7031 58.8296C46.2255 57.6147 45.2221 49.0983 44.1744 48.7824C43.0642 48.4483 41.2549 46.4032 41.4725 42.8152C41.813 37.1801 41.7344 33.9465 39.5866 31.0712C36.7497 27.2787 33.6871 25.3106 27.4974 25.0372C21.8216 24.7031 15.8516 26.2137 13.0146 30.0163C10.8668 32.8895 10.22 35.6858 9.91578 39.2596C9.61154 42.8335 12.5129 47.3306 11.84 50.8619C11.6385 51.9411 11.2194 53.1621 10.1898 53.5306C8.70485 54.0631 6.84312 52.423 5.27153 52.5688C3.98807 52.6863 3.12571 53.9457 2.65221 55.1484C1.45136 58.1614 2.00142 61.8972 4.17545 64.2966C4.84494 65.0075 5.62643 65.6027 6.48851 66.0582C9.16827 67.5444 12.392 67.508 14.1772 67.3359C14.1772 67.3359 20.6691 69.877 24.2334 67.8988C28.8373 65.3435 28.7628 58.5846 28.7628 58.5846C28.7628 58.5846 28.7628 64.8291 32.2505 67.2549C37.9828 71.2438 43.7352 67.1152 43.7352 67.1152C45.5667 67.3156 47.8999 61.8425 46.7031 58.8296Z" fill="#FFE783"/>
<path d="M13.9173 66.6097C13.9173 66.6097 5.3421 65.7997 2.45884 59.2109C2.45884 59.2109 1.9793 64.1292 6.73034 66.067C11.4814 68.0048 13.9173 66.6097 13.9173 66.6097Z" fill="#FF9AC9"/>
<path d="M20.4137 69.5194C17.5929 69.5194 13.8735 68.7925 11.9755 66.6968C10.1178 64.6437 9.35616 61.4809 10.0231 58.638C10.6275 56.0948 11.7901 54.4203 13.4907 53.661C14.0165 53.4374 14.5783 53.3112 15.1489 53.2884C16.7305 53.1831 18.8018 53.8331 20.6857 55.0237C21.0713 55.2669 21.1877 55.7782 20.9456 56.1657C20.7036 56.5532 20.1948 56.6701 19.8093 56.4269C18.2316 55.4287 16.4867 54.8617 15.2577 54.9407C14.881 54.9535 14.5093 55.0323 14.1596 55.1735C12.9386 55.7202 12.1105 56.9777 11.6269 59.0207C11.1776 60.9261 11.4879 63.696 13.1945 65.5812C14.7258 67.2739 18.153 67.9441 20.8711 67.8571C27.9352 67.6303 27.9594 59.537 27.9392 58.6157C27.9189 58.3119 28.0662 58.0214 28.3227 57.8593C28.5792 57.6972 28.9035 57.6897 29.1673 57.8396C29.431 57.9896 29.5915 58.2728 29.5853 58.5773C29.6055 59.4115 29.5612 62.3354 28.2173 64.9676C26.7545 67.8348 24.2319 69.4061 20.9235 69.5113C20.7582 69.5174 20.587 69.5194 20.4137 69.5194Z" fill="#1A1A1A"/>
<path d="M12.4969 68.253C10.6392 68.253 8.21128 67.9675 6.08964 66.7931C5.14757 66.2914 4.29452 65.6367 3.56502 64.8553C1.21167 62.2534 0.542733 58.226 1.8806 54.8324C2.62408 52.9635 3.80076 51.862 5.19706 51.7324C6.09971 51.6494 6.97215 51.9896 7.81637 52.3176C8.62231 52.6314 9.38595 52.925 9.91182 52.7408C10.6049 52.4917 11.1006 51.9066 11.3827 50.9994C11.7292 49.8838 11.4048 48.8288 10.8165 46.9133C10.5284 45.9839 10.1738 44.8257 9.8272 43.4104C8.52157 38.0466 9.2852 32.8914 11.8743 29.6112C14.8966 25.7984 23.0124 22.7794 29.2565 23.15C29.5579 23.1572 29.8313 23.3293 29.9693 23.5987C30.1074 23.868 30.0881 24.1916 29.9189 24.4425C29.7498 24.6933 29.4579 24.8313 29.1578 24.8022C23.5726 24.4803 15.8013 27.3171 13.1638 30.6499C10.4861 34.0334 10.5123 39.2554 11.431 43.0155C11.7635 44.3823 12.0979 45.4676 12.3921 46.4233C13.0349 48.5089 13.458 49.8858 12.9583 51.4854C12.5191 52.9028 11.6567 53.8666 10.4659 54.2938C9.36378 54.6866 8.2274 54.2452 7.22199 53.8544C6.55507 53.5953 5.86397 53.326 5.34817 53.3746C4.30246 53.4717 3.64561 54.8507 3.41189 55.4379C2.31178 58.2119 2.87594 61.6237 4.78401 63.7396C5.39224 64.3859 6.10224 64.927 6.88551 65.3413C9.38998 66.7303 12.4808 66.6756 14.0987 66.5197C14.5522 66.4761 14.9549 66.8102 14.9983 67.2659C15.0417 67.7216 14.7093 68.1264 14.2559 68.17C13.7723 68.2165 13.1719 68.253 12.4969 68.253Z" fill="#1A1A1A"/>
<path d="M43.0642 49.2781C42.8978 49.279 42.7352 49.2281 42.5988 49.1324C40.6524 47.798 40.6504 45.2589 40.6484 42.3208C40.6484 41.7296 40.6484 41.1201 40.6303 40.4985C40.5114 35.7584 39.6128 32.3992 37.888 30.2002C35.2828 26.8957 31.7568 25.4965 25.3113 25.2131C24.8644 25.1831 24.5231 24.8 24.5428 24.3503C24.5625 23.9006 24.936 23.5491 25.3838 23.5588C31.2108 23.8159 35.7865 24.8689 39.1796 29.1716C41.136 31.652 42.1495 35.3433 42.2784 40.456C42.2945 41.0999 42.2965 41.7215 42.2965 42.3208C42.2965 44.8924 42.2965 46.9253 43.5276 47.7676C43.8264 47.9722 43.9576 48.3485 43.8512 48.6957C43.7448 49.0429 43.4257 49.2799 43.0642 49.2802V49.2781Z" fill="#1A1A1A"/>
<path d="M32.6415 21.4553C31.7832 19.4305 29.8389 18.8555 27.548 19.1227C27.3831 19.1381 27.2197 19.0804 27.1007 18.9648C26.9888 18.8118 26.9352 18.6236 26.9496 18.4343C26.8408 16.5978 25.5855 14.9516 23.9776 14.0728C22.3698 13.194 19.8895 13.0321 17.4737 13.4654C18.6665 14.0728 19.0856 15.8263 18.3199 16.9238C17.9169 17.509 17.2621 17.8714 16.6436 18.2298C15.0659 19.145 13.2183 19.8132 11.8079 21.431C10.6352 22.7452 9.77289 24.5493 10.1114 26.6551C10.4015 28.4633 11.3203 30.0406 13.3352 30.8465C14.0867 31.1482 15.5737 31.3709 16.3836 31.3709C21.2576 31.3709 25.1503 30.5245 29.5286 28.3742C30.3708 27.9692 31.7449 27.0398 32.2849 26.2744C33.3487 24.7801 33.3105 23.0266 32.6415 21.4553Z" fill="#F93549"/>
<path fill-rule="evenodd" clip-rule="evenodd" d="M16.3782 32.2028H16.4104C21.4576 32.2007 25.4914 31.2794 29.8878 29.121C30.7078 28.716 32.2673 27.7198 32.9524 26.758C34.0988 25.1503 34.258 23.1578 33.3977 21.133C32.5051 19.0454 30.5104 18.0371 27.7561 18.2699C27.5888 16.2856 26.3054 14.4086 24.3651 13.3476C22.6625 12.4121 20.0956 12.157 17.3312 12.6449C16.9883 12.7121 16.7248 12.9892 16.6736 13.3365C16.6224 13.6838 16.7947 14.0258 17.1035 14.1899C17.481 14.4066 17.7486 14.7749 17.8389 15.2023C17.9546 15.622 17.8865 16.0714 17.6516 16.4374C17.3669 16.8459 16.8736 17.1332 16.3471 17.4399C16.3333 17.4479 16.3195 17.456 16.3056 17.464L16.2311 17.5086C15.8563 17.7252 15.4654 17.9297 15.0504 18.1444C13.7891 18.8004 12.3565 19.5456 11.1818 20.8779C10.0878 22.1211 8.87282 24.146 9.29594 26.7884C9.66868 29.1189 10.9602 30.7874 13.0275 31.6176C13.8878 31.9618 15.4795 32.2007 16.3782 32.2028ZM19.4343 14.812C19.3724 14.5616 19.2839 14.3186 19.1703 14.0872C20.9394 13.9738 22.519 14.2248 23.5728 14.8019C25.0315 15.6017 26.0309 17.0454 26.1155 18.5033C26.1109 18.8926 26.2551 19.2687 26.5185 19.5542C26.8145 19.8486 27.2269 19.9929 27.6408 19.947C29.8289 19.6919 31.2554 20.3094 31.8821 21.7835C32.3233 22.8202 32.6336 24.3591 31.6121 25.7947C31.201 26.3718 29.9921 27.2283 29.164 27.6332C24.9509 29.7006 21.2476 30.5449 16.412 30.5449H16.3797C15.6624 30.5449 14.2782 30.3364 13.6375 30.0792C12.0941 29.4617 11.2076 28.2994 10.9235 26.5257C10.6031 24.5272 11.5582 22.9498 12.4165 21.9759C13.3897 20.8764 14.6187 20.2345 15.8075 19.6149C16.2206 19.4023 16.6517 19.1796 17.0547 18.9427L17.1232 18.9022C17.7639 18.5316 18.4913 18.1105 18.991 17.3998C19.5049 16.6425 19.6666 15.6984 19.4343 14.812Z" fill="#1A1A1A"/>
<path d="M19.8168 40.2227C19.4816 40.2223 19.1799 40.0183 19.0532 39.7064C18.9665 39.4897 18.215 37.5358 18.9605 36.1184C19.3166 35.4634 19.9497 35.0067 20.6812 34.8772C21.3626 34.7075 22.0839 34.8564 22.6437 35.2822C23.9009 36.252 24.0541 38.3801 24.0541 38.6211C24.0774 39.0779 23.7279 39.4673 23.2733 39.4908C22.8187 39.5142 22.4313 39.163 22.4079 38.7061C22.3777 38.1898 22.152 36.9931 21.6362 36.5963C21.462 36.4685 21.2379 36.431 21.0318 36.495C20.7769 36.5237 20.5517 36.6746 20.4273 36.9C20.0949 37.5277 20.4434 38.7223 20.5905 39.0949C20.692 39.3504 20.661 39.6398 20.5076 39.8677C20.3543 40.0956 20.0986 40.2323 19.8249 40.2329L19.8168 40.2227Z" fill="#1A1A1A"/>
<path d="M45.9893 56.3391C49.9344 54.5795 51.5906 49.4283 51.4798 45.4435C51.4274 43.5874 51.1196 41.7476 50.5651 39.9764C50.1299 38.5914 49.5435 37.2571 49.2715 35.8215C48.9995 34.3859 49.0882 32.7842 49.8981 31.6159C50.7081 30.4476 52.3825 29.9677 53.4302 30.8769C53.4302 30.8769 60.3291 34.0498 58.9952 44.751C57.3652 57.8152 47.031 59.1374 47.031 59.1374L45.9893 56.3391Z" fill="#FF9AC9"/>
<path d="M27.1662 38.6349C26.8315 38.6348 26.5299 38.4317 26.4025 38.1206C26.3159 37.9019 25.5644 35.9479 26.3099 34.5306C26.6655 33.8741 27.2984 33.4152 28.0305 33.2833C28.712 33.1139 29.4331 33.2627 29.993 33.6882C31.2503 34.6561 31.4034 36.7862 31.4034 37.0251C31.4189 37.3207 31.2763 37.602 31.0294 37.7632C30.7825 37.9245 30.4687 37.9411 30.2063 37.8068C29.9439 37.6725 29.7728 37.4077 29.7573 37.1122C29.7271 36.5959 29.5014 35.3972 28.9836 35.0023C28.8097 34.8736 28.5851 34.836 28.3791 34.9011C28.124 34.9291 27.8985 35.0802 27.7747 35.3061C27.4422 35.9317 27.7888 37.1284 27.9379 37.501C28.0406 37.7562 28.0101 38.0461 27.8564 38.2741C27.7028 38.5021 27.4462 38.6381 27.1722 38.6369L27.1662 38.6349Z" fill="#1A1A1A"/>
<path d="M46.7029 59.6576C46.2713 59.6545 45.9152 59.3171 45.8866 58.8843C45.858 58.4515 46.1666 58.0699 46.5941 58.0094C49.9469 57.5368 52.9715 55.7341 54.992 53.0041C57.7262 49.3209 60.684 39.7657 55.4957 33.3167C53.6823 31.0671 49.8803 29.5201 47.0938 30.8018C46.6747 31.0043 45.8526 31.5065 45.4396 32.1909C44.69 33.4321 44.7424 34.8069 45.5866 36.0623C47.9702 39.6017 48.3269 45.3927 47.0353 47.8286C46.4309 48.9585 45.3408 49.6509 44.1621 49.6104C43.6195 49.5952 43.0905 49.4359 42.6288 49.1488C42.2855 48.8895 42.1979 48.4086 42.4276 48.0439C42.6572 47.6792 43.1271 47.5529 43.5073 47.7537C43.7152 47.8794 43.9518 47.9492 44.1944 47.9562C44.7424 47.9703 45.2623 47.6322 45.5705 47.0511C46.0581 46.1318 46.2334 44.3783 46.0259 42.4729C45.7982 40.3631 45.1353 38.3666 44.2125 36.9937C43.0036 35.1977 42.9331 33.1344 44.0211 31.3242C44.7686 30.0871 46.1327 29.4128 46.3986 29.2994C48.0327 28.5462 50.0455 28.4895 52.0705 29.1354C53.9024 29.711 55.5326 30.8006 56.7691 32.2759C60.011 36.3073 60.2407 41.0556 59.8639 44.3277C59.3723 48.5798 57.702 52.1131 56.3017 53.9982C54.0185 57.0823 50.6015 59.119 46.8137 59.6536L46.7029 59.6576Z" fill="#1A1A1A"/>
<path d="M23.1578 41.3985C24.8731 40.8364 26.6312 40.4158 28.4146 40.1411C29.2025 40.0224 29.9585 40.4999 30.1937 41.2649C30.9593 43.7979 32.0897 49.2508 27.9632 50.1356C23.8973 51.0063 22.4969 45.7742 22.0577 43.2047C21.9278 42.4117 22.3961 41.643 23.1578 41.3985V41.3985Z" fill="white"/>
<path fill-rule="evenodd" clip-rule="evenodd" d="M24.6869 50.3325C25.3909 50.8193 26.226 51.0785 27.0806 51.0756C27.435 51.0729 27.7882 51.0329 28.1344 50.9561C29.4198 50.6807 30.385 50.0085 31.0015 48.9556C32.2971 46.7465 31.7067 43.4298 30.9814 41.0345C30.6345 39.8727 29.4883 39.146 28.2955 39.3316C26.4624 39.6124 24.6551 40.0431 22.8917 40.6194C21.7453 41.0002 21.0464 42.1642 21.2456 43.361C21.6526 45.7503 22.5814 48.8989 24.6869 50.3325ZM22.8693 43.0704C22.8013 42.6833 23.0286 42.3052 23.4012 42.1856H23.4032C25.079 41.6417 26.7959 41.2354 28.5371 40.9707C28.9218 40.9094 29.2925 41.1428 29.4055 41.5174C30.2819 44.4109 30.3464 46.8164 29.5828 48.1163C29.1921 48.7658 28.5371 49.21 27.7916 49.3312C27.0445 49.5251 26.2505 49.3872 25.6115 48.9526C24.3623 48.1021 23.3629 45.9578 22.8693 43.0704Z" fill="#1A1A1A"/>
<path d="M25.5412 45.6819C25.3188 45.1129 25.1489 44.5246 25.0334 43.9244C24.9335 43.4857 25.1876 43.0439 25.6157 42.9119C26.0046 42.8107 26.4217 42.7095 26.8649 42.6143C27.3126 42.5362 27.7425 42.8248 27.8421 43.2703C27.9686 43.7529 28.0635 44.2433 28.1262 44.7383C28.2955 46.2225 28.2129 47.239 27.3989 47.4496C26.6191 47.6581 25.9784 46.751 25.5412 45.6819Z" fill="#1A1A1A"/>
<path d="M37.1145 69.5231C36.9412 69.5231 36.772 69.5231 36.6068 69.5231C33.2984 69.4178 30.7758 67.8465 29.313 64.9793C27.9691 62.3471 27.9248 59.4232 27.9429 58.589C27.9535 58.1316 28.331 57.7695 28.7861 57.7801C29.2412 57.7907 29.6016 58.1701 29.591 58.6275C29.5709 59.5488 29.591 67.642 36.6592 67.8688C39.3752 67.9538 42.8025 67.2856 44.3358 65.5929C46.0424 63.7078 46.3506 60.9358 45.9013 59.0324C45.4198 56.9894 44.5917 55.732 43.3686 55.1853C43.0196 55.0439 42.6486 54.9651 42.2726 54.9524C41.0455 54.8734 39.2986 55.4404 37.721 56.4366C37.4717 56.6082 37.149 56.6289 36.88 56.4906C36.611 56.3523 36.4389 56.0772 36.4315 55.7736C36.4241 55.4701 36.5826 55.1868 36.8445 55.0354C38.7284 53.8448 40.7977 53.1949 42.3814 53.3001C42.9519 53.3229 43.5137 53.4491 44.0396 53.6727C45.7401 54.432 46.9047 56.1025 47.5052 58.6497C48.1781 61.4845 47.4125 64.6554 45.5548 66.7085C43.6568 68.7961 39.9373 69.5231 37.1145 69.5231Z" fill="#1A1A1A"/>
</g>
<g style="mix-blend-mode:saturation" opacity="0.2">
<rect x="4" y="4" width="56" height="56" rx="28" fill="white"/>
</g>
<g style="mix-blend-mode:hue" opacity="0.2">
<rect x="4" y="4" width="56" height="56" rx="28" fill="white"/>
</g>
<mask id="mask1_1541_162613" style="mask-type:alpha" maskUnits="userSpaceOnUse" x="4" y="4" width="56" height="56">
<rect x="4" y="4" width="56" height="56" rx="28" fill="#EEEEEE"/>
</mask>
<g mask="url(#mask1_1541_162613)">
</g>
<rect x="2" y="2" width="60" height="60" rx="30" stroke="#EEEEEE" stroke-width="4"/>
</svg>
