<svg width="36" height="36" viewBox="0 0 36 36" fill="none" xmlns="http://www.w3.org/2000/svg">
<mask id="mask0_1541_162759" style="mask-type:alpha" maskUnits="userSpaceOnUse" x="2" y="2" width="32" height="32">
<rect x="2" y="2" width="32" height="32" fill="#D9D9D9"/>
</mask>
<g mask="url(#mask0_1541_162759)">
<mask id="path-2-inside-1_1541_162759" fill="white">
<path fill-rule="evenodd" clip-rule="evenodd" d="M5 8C3.34315 8 2 9.34315 2 11V29C2 30.6569 3.34315 32 5 32H31C32.6569 32 34 30.6569 34 29V11C34 9.34315 32.6569 8 31 8H5ZM18 13.25C18.6904 13.25 19.25 13.8096 19.25 14.5V18.75L23.5 18.75C24.1904 18.75 24.75 19.3096 24.75 20C24.75 20.6904 24.1904 21.25 23.5 21.25H19.25V25.5C19.25 26.1904 18.6904 26.75 18 26.75C17.3096 26.75 16.75 26.1904 16.75 25.5V21.25H12.5C11.8096 21.25 11.25 20.6904 11.25 20C11.25 19.3096 11.8096 18.75 12.5 18.75H16.75V14.5C16.75 13.8096 17.3096 13.25 18 13.25Z"/>
</mask>
<path fill-rule="evenodd" clip-rule="evenodd" d="M5 8C3.34315 8 2 9.34315 2 11V29C2 30.6569 3.34315 32 5 32H31C32.6569 32 34 30.6569 34 29V11C34 9.34315 32.6569 8 31 8H5ZM18 13.25C18.6904 13.25 19.25 13.8096 19.25 14.5V18.75L23.5 18.75C24.1904 18.75 24.75 19.3096 24.75 20C24.75 20.6904 24.1904 21.25 23.5 21.25H19.25V25.5C19.25 26.1904 18.6904 26.75 18 26.75C17.3096 26.75 16.75 26.1904 16.75 25.5V21.25H12.5C11.8096 21.25 11.25 20.6904 11.25 20C11.25 19.3096 11.8096 18.75 12.5 18.75H16.75V14.5C16.75 13.8096 17.3096 13.25 18 13.25Z" fill="#EEEEEE"/>
<path d="M19.25 18.75H17V21L19.25 21L19.25 18.75ZM23.5 18.75L23.5 21H23.5V18.75ZM19.25 21.25V19H17V21.25H19.25ZM16.75 21.25H19V19H16.75V21.25ZM16.75 18.75V21H19V18.75H16.75ZM4.25 11C4.25 10.5858 4.58579 10.25 5 10.25V5.75C2.10051 5.75 -0.25 8.10051 -0.25 11H4.25ZM4.25 29V11H-0.25V29H4.25ZM5 29.75C4.58579 29.75 4.25 29.4142 4.25 29H-0.25C-0.25 31.8995 2.10051 34.25 5 34.25V29.75ZM31 29.75H5V34.25H31V29.75ZM31.75 29C31.75 29.4142 31.4142 29.75 31 29.75V34.25C33.8995 34.25 36.25 31.8995 36.25 29H31.75ZM31.75 11V29H36.25V11H31.75ZM31 10.25C31.4142 10.25 31.75 10.5858 31.75 11H36.25C36.25 8.10051 33.8995 5.75 31 5.75V10.25ZM5 10.25H31V5.75H5V10.25ZM21.5 14.5C21.5 12.567 19.933 11 18 11V15.5C17.4477 15.5 17 15.0523 17 14.5H21.5ZM21.5 18.75V14.5H17V18.75H21.5ZM23.5 16.5L19.25 16.5L19.25 21L23.5 21L23.5 16.5ZM27 20C27 18.067 25.433 16.5 23.5 16.5V21C22.9477 21 22.5 20.5523 22.5 20H27ZM23.5 23.5C25.433 23.5 27 21.933 27 20H22.5C22.5 19.4477 22.9477 19 23.5 19V23.5ZM19.25 23.5H23.5V19H19.25V23.5ZM21.5 25.5V21.25H17V25.5H21.5ZM18 29C19.933 29 21.5 27.433 21.5 25.5H17C17 24.9477 17.4477 24.5 18 24.5V29ZM14.5 25.5C14.5 27.433 16.067 29 18 29V24.5C18.5523 24.5 19 24.9477 19 25.5H14.5ZM14.5 21.25V25.5H19V21.25H14.5ZM12.5 23.5H16.75V19H12.5V23.5ZM9 20C9 21.933 10.567 23.5 12.5 23.5V19C13.0523 19 13.5 19.4477 13.5 20H9ZM12.5 16.5C10.567 16.5 9 18.067 9 20H13.5C13.5 20.5523 13.0523 21 12.5 21V16.5ZM16.75 16.5H12.5V21H16.75V16.5ZM14.5 14.5V18.75H19V14.5H14.5ZM18 11C16.067 11 14.5 12.567 14.5 14.5H19C19 15.0523 18.5523 15.5 18 15.5V11Z" fill="#EEEEEE" mask="url(#path-2-inside-1_1541_162759)"/>
<line x1="13.1964" y1="5" x2="17.0854" y2="8.88909" stroke="#EEEEEE" stroke-width="2.5" stroke-linecap="round"/>
<line x1="1.25" y1="-1.25" x2="6.75" y2="-1.25" transform="matrix(-0.707107 0.707107 0.707107 0.707107 24.5715 5)" stroke="#EEEEEE" stroke-width="2.5" stroke-linecap="round"/>
</g>
</svg>
