<svg width="36" height="36" viewBox="0 0 36 36" fill="none" xmlns="http://www.w3.org/2000/svg">
<mask id="mask0_1541_162791" style="mask-type:alpha" maskUnits="userSpaceOnUse" x="2" y="2" width="32" height="32">
<rect x="2" y="2" width="32" height="32" fill="#EEEEEE"/>
</mask>
<g mask="url(#mask0_1541_162791)">
<path fill-rule="evenodd" clip-rule="evenodd" d="M16.4834 2C14.8002 2 13.4358 3.36447 13.4358 5.04762V7.72096L11.3405 8.77047C11.3088 8.78634 11.2772 8.80239 11.2457 8.81861L9.08771 7.5705C7.6307 6.72781 5.76823 7.22686 4.92777 8.68515L3.40798 11.3221C2.56752 12.7804 3.06732 14.6458 4.52433 15.4884L6.08273 16.3898C5.89063 17.4573 5.89006 18.5508 6.08101 19.6185L4.52432 20.5189C3.06731 21.3615 2.5675 23.2269 3.40796 24.6852L4.92775 27.3221C5.76821 28.7804 7.63069 29.2795 9.0877 28.4368L11.2361 27.1943C11.2707 27.2122 11.3055 27.2299 11.3405 27.2474L13.4358 28.2969V30.9524C13.4358 32.6355 14.8002 34 16.4834 34H19.5149C21.1981 34 22.5625 32.6355 22.5625 30.9524V28.2924L24.6488 27.2474C24.6856 27.229 24.7223 27.2103 24.7588 27.1914L26.912 28.4368C28.3691 29.2795 30.2315 28.7804 31.072 27.3221L32.5918 24.6852C33.4322 23.2269 32.9324 21.3615 31.4754 20.5189L29.9093 19.613C30.0989 18.5489 30.0983 17.4593 29.9076 16.3952L31.4754 15.4884C32.9324 14.6458 33.4322 12.7804 32.5918 11.3221L31.072 8.68515C30.2315 7.22686 28.369 6.72781 26.912 7.5705L24.7491 8.82146C24.7158 8.80427 24.6824 8.78727 24.6488 8.77047L22.5625 7.72546V5.04762C22.5625 3.36446 21.1981 2 19.5149 2H16.4834ZM18 23.5C21.0376 23.5 23.5 21.0376 23.5 18C23.5 14.9624 21.0376 12.5 18 12.5C14.9624 12.5 12.5 14.9624 12.5 18C12.5 21.0376 14.9624 23.5 18 23.5Z" fill="#EEEEEE"/>
</g>
</svg>
