<svg width="36" height="36" viewBox="0 0 36 36" fill="none" xmlns="http://www.w3.org/2000/svg">
<g opacity="0.5">
<mask id="mask0_1529_117847" style="mask-type:alpha" maskUnits="userSpaceOnUse" x="2" y="2" width="32" height="32">
<rect x="2" y="2" width="32" height="32" fill="#D9D9D9"/>
</mask>
<g mask="url(#mask0_1529_117847)">
<mask id="path-2-inside-1_1529_117847" fill="white">
<path fill-rule="evenodd" clip-rule="evenodd" d="M31 10.5H5C4.72386 10.5 4.5 10.7239 4.5 11V29C4.5 29.2761 4.72386 29.5 5 29.5H31C31.2761 29.5 31.5 29.2761 31.5 29V11C31.5 10.7239 31.2761 10.5 31 10.5ZM5 8C3.34315 8 2 9.34315 2 11V29C2 30.6569 3.34315 32 5 32H31C32.6569 32 34 30.6569 34 29V11C34 9.34315 32.6569 8 31 8H5Z"/>
</mask>
<path fill-rule="evenodd" clip-rule="evenodd" d="M31 10.5H5C4.72386 10.5 4.5 10.7239 4.5 11V29C4.5 29.2761 4.72386 29.5 5 29.5H31C31.2761 29.5 31.5 29.2761 31.5 29V11C31.5 10.7239 31.2761 10.5 31 10.5ZM5 8C3.34315 8 2 9.34315 2 11V29C2 30.6569 3.34315 32 5 32H31C32.6569 32 34 30.6569 34 29V11C34 9.34315 32.6569 8 31 8H5Z" fill="#EEEEEE"/>
<path d="M5 12.75H31V8.25H5V12.75ZM6.75 11C6.75 11.9665 5.9665 12.75 5 12.75V8.25C3.48122 8.25 2.25 9.48122 2.25 11H6.75ZM6.75 29V11H2.25V29H6.75ZM5 27.25C5.9665 27.25 6.75 28.0335 6.75 29H2.25C2.25 30.5188 3.48122 31.75 5 31.75V27.25ZM31 27.25H5V31.75H31V27.25ZM29.25 29C29.25 28.0335 30.0335 27.25 31 27.25V31.75C32.5188 31.75 33.75 30.5188 33.75 29H29.25ZM29.25 11V29H33.75V11H29.25ZM31 12.75C30.0335 12.75 29.25 11.9665 29.25 11H33.75C33.75 9.48122 32.5188 8.25 31 8.25V12.75ZM4.25 11C4.25 10.5858 4.58579 10.25 5 10.25V5.75C2.10051 5.75 -0.25 8.10051 -0.25 11H4.25ZM4.25 29V11H-0.25V29H4.25ZM5 29.75C4.58579 29.75 4.25 29.4142 4.25 29H-0.25C-0.25 31.8995 2.10051 34.25 5 34.25V29.75ZM31 29.75H5V34.25H31V29.75ZM31.75 29C31.75 29.4142 31.4142 29.75 31 29.75V34.25C33.8995 34.25 36.25 31.8995 36.25 29H31.75ZM31.75 11V29H36.25V11H31.75ZM31 10.25C31.4142 10.25 31.75 10.5858 31.75 11H36.25C36.25 8.10051 33.8995 5.75 31 5.75V10.25ZM5 10.25H31V5.75H5V10.25Z" fill="#EEEEEE" mask="url(#path-2-inside-1_1529_117847)"/>
<path fill-rule="evenodd" clip-rule="evenodd" d="M19.25 14.5C19.25 13.8096 18.6904 13.25 18 13.25C17.3096 13.25 16.75 13.8096 16.75 14.5V18.75L12.5 18.75C11.8096 18.75 11.25 19.3096 11.25 20C11.25 20.6904 11.8096 21.25 12.5 21.25H16.75V25.5C16.75 26.1904 17.3096 26.75 18 26.75C18.6904 26.75 19.25 26.1904 19.25 25.5V21.25H23.5C24.1904 21.25 24.75 20.6904 24.75 20C24.75 19.3096 24.1904 18.75 23.5 18.75L19.25 18.75V14.5Z" fill="#EEEEEE"/>
<line x1="13.1964" y1="5" x2="17.0854" y2="8.88909" stroke="#EEEEEE" stroke-width="2.5" stroke-linecap="round"/>
<line x1="1.25" y1="-1.25" x2="6.75" y2="-1.25" transform="matrix(-0.707107 0.707107 0.707107 0.707107 24.5715 5)" stroke="#EEEEEE" stroke-width="2.5" stroke-linecap="round"/>
</g>
</g>
</svg>
