<svg width="56" height="56" viewBox="0 0 56 56" fill="none" xmlns="http://www.w3.org/2000/svg">
<circle cx="28" cy="28" r="28" fill="#92D4FF"/>
<mask id="mask0_1529_117888" style="mask-type:luminance" maskUnits="userSpaceOnUse" x="0" y="0" width="56" height="56">
<circle cx="28" cy="28" r="28" fill="white"/>
</mask>
<g mask="url(#mask0_1529_117888)">
<path d="M51.8807 28.7534C49.7147 26.2608 45.8361 24.6227 42.7413 26.0502C42.0908 26.3611 41.5272 26.8293 41.1012 27.4129C40.2348 28.6177 39.8036 30.9037 40.8997 32.5256C43.0777 35.7654 43.4565 41.2648 42.3101 43.4394C41.8809 44.2494 41.1012 44.8062 40.1864 44.7819C39.7929 44.7724 39.409 44.6578 39.0742 44.4498L42.7151 54.8291C46.2329 54.3812 49.4329 52.5572 51.6207 49.7529C54.097 46.5516 58.4793 36.3424 51.8807 28.7534Z" fill="#FFE783"/>
<path d="M42.7031 54.8296C42.2255 53.6147 41.2221 45.0983 40.1744 44.7824C39.0642 44.4483 37.2549 42.4032 37.4725 38.8152C37.813 33.1801 37.7344 29.9465 35.5866 27.0712C32.7497 23.2787 29.6871 21.3106 23.4974 21.0372C17.8216 20.7031 11.8516 22.2137 9.01463 26.0163C6.86679 28.8895 6.22002 31.6858 5.91578 35.2596C5.61154 38.8335 8.51293 43.3306 7.83997 46.8619C7.63848 47.9411 7.21939 49.1621 6.1898 49.5306C4.70485 50.0631 2.84312 48.423 1.27153 48.5688C-0.011934 48.6863 -0.874293 49.9457 -1.34779 51.1484C-2.54864 54.1614 -1.99858 57.8972 0.175448 60.2966C0.844941 61.0075 1.62643 61.6027 2.48851 62.0582C5.16827 63.5444 8.39204 63.508 10.1772 63.3359C10.1772 63.3359 16.6691 65.877 20.2334 63.8988C24.8373 61.3435 24.7628 54.5846 24.7628 54.5846C24.7628 54.5846 24.7628 60.8292 28.2505 63.2549C33.9828 67.2438 39.7352 63.1152 39.7352 63.1152C41.5667 63.3156 43.8999 57.8425 42.7031 54.8296Z" fill="#FFE783"/>
<path d="M9.91734 62.6097C9.91734 62.6097 1.3421 61.7997 -1.54116 55.2109C-1.54116 55.2109 -2.0207 60.1292 2.73034 62.067C7.48138 64.0048 9.91734 62.6097 9.91734 62.6097Z" fill="#FF9AC9"/>
<path d="M16.4137 65.5194C13.5929 65.5194 9.87348 64.7925 7.97548 62.6968C6.11778 60.6437 5.35616 57.4809 6.02308 54.638C6.62754 52.0948 7.79011 50.4203 9.49065 49.661C10.0165 49.4374 10.5783 49.3112 11.1489 49.2884C12.7305 49.1831 14.8018 49.8331 16.6857 51.0237C17.0713 51.2669 17.1877 51.7782 16.9456 52.1657C16.7036 52.5532 16.1948 52.6701 15.8092 52.4269C14.2316 51.4287 12.4867 50.8617 11.2577 50.9407C10.881 50.9535 10.5093 51.0323 10.1596 51.1735C8.93858 51.7202 8.11048 52.9777 7.62691 55.0207C7.1776 56.9261 7.48788 59.696 9.19447 61.5812C10.7258 63.2739 14.153 63.9441 16.8711 63.8571C23.9352 63.6303 23.9594 55.537 23.9392 54.6157C23.9189 54.3119 24.0662 54.0214 24.3227 53.8593C24.5792 53.6972 24.9035 53.6897 25.1672 53.8396C25.431 53.9896 25.5915 54.2728 25.5853 54.5773C25.6055 55.4115 25.5612 58.3354 24.2173 60.9676C22.7545 63.8348 20.2319 65.4061 16.9235 65.5113C16.7582 65.5174 16.587 65.5194 16.4137 65.5194Z" fill="#1A1A1A"/>
<path d="M8.49689 64.253C6.63919 64.253 4.21128 63.9675 2.08964 62.7931C1.14757 62.2914 0.294524 61.6367 -0.43498 60.8553C-2.78833 58.2534 -3.45727 54.226 -2.1194 50.8324C-1.37592 48.9635 -0.199241 47.862 1.19706 47.7324C2.09971 47.6494 2.97215 47.9896 3.81637 48.3176C4.62231 48.6314 5.38595 48.925 5.91182 48.7408C6.60494 48.4917 7.10059 47.9066 7.38267 46.9994C7.72923 45.8838 7.40483 44.8288 6.81649 42.9133C6.52837 41.9839 6.17376 40.8257 5.8272 39.4104C4.52157 34.0466 5.2852 28.8914 7.8743 25.6112C10.8966 21.7984 19.0124 18.7794 25.2565 19.15C25.5579 19.1572 25.8313 19.3293 25.9693 19.5987C26.1074 19.868 26.0881 20.1916 25.9189 20.4425C25.7498 20.6933 25.4579 20.8313 25.1578 20.8022C19.5726 20.4803 11.8013 23.3171 9.16381 26.6499C6.48606 30.0334 6.51225 35.2554 7.43103 39.0155C7.76348 40.3823 8.09795 41.4676 8.39211 42.4233C9.03485 44.5089 9.45797 45.8858 8.95829 47.4854C8.51905 48.9028 7.65669 49.8666 6.46591 50.2938C5.36378 50.6866 4.2274 50.2452 3.22199 49.8544C2.55507 49.5953 1.86397 49.326 1.34817 49.3746C0.302458 49.4717 -0.354386 50.8507 -0.588109 51.4379C-1.68822 54.2119 -1.12406 57.6237 0.784009 59.7396C1.39224 60.3859 2.10224 60.927 2.88551 61.3413C5.38998 62.7303 8.48077 62.6756 10.0987 62.5197C10.5522 62.4761 10.9549 62.8102 10.9983 63.2659C11.0417 63.7216 10.7093 64.1264 10.2559 64.17C9.77229 64.2165 9.17186 64.253 8.49689 64.253Z" fill="#1A1A1A"/>
<path d="M39.0642 45.2781C38.8978 45.279 38.7352 45.2281 38.5988 45.1324C36.6524 43.798 36.6504 41.2589 36.6484 38.3208C36.6484 37.7296 36.6484 37.1201 36.6303 36.4985C36.5114 31.7584 35.6128 28.3992 33.888 26.2002C31.2828 22.8957 27.7568 21.4965 21.3113 21.2131C20.8644 21.1831 20.5231 20.8 20.5428 20.3503C20.5625 19.9006 20.936 19.5491 21.3838 19.5588C27.2108 19.8159 31.7865 20.8689 35.1796 25.1716C37.136 27.652 38.1495 31.3433 38.2784 36.456C38.2945 37.0999 38.2965 37.7215 38.2965 38.3208C38.2965 40.8924 38.2965 42.9253 39.5276 43.7676C39.8264 43.9722 39.9576 44.3485 39.8512 44.6957C39.7448 45.0429 39.4257 45.2799 39.0642 45.2802V45.2781Z" fill="#1A1A1A"/>
<path d="M28.6415 17.4553C27.7832 15.4305 25.8389 14.8555 23.548 15.1227C23.3831 15.1381 23.2197 15.0804 23.1007 14.9648C22.9888 14.8118 22.9352 14.6236 22.9496 14.4343C22.8408 12.5978 21.5855 10.9516 19.9776 10.0728C18.3698 9.19405 15.8895 9.03206 13.4737 9.46538C14.6665 10.0728 15.0856 11.8263 14.3199 12.9238C13.9169 13.509 13.2621 13.8714 12.6436 14.2298C11.0659 15.145 9.21829 15.8132 7.80789 17.431C6.63525 18.7452 5.77289 20.5493 6.11138 22.6551C6.40152 24.4633 7.3203 26.0406 9.33516 26.8465C10.0867 27.1482 11.5737 27.3709 12.3836 27.3709C17.2576 27.3709 21.1503 26.5245 25.5286 24.3742C26.3708 23.9692 27.7449 23.0398 28.2849 22.2744C29.3487 20.7801 29.3105 19.0266 28.6415 17.4553Z" fill="#F93549"/>
<path fill-rule="evenodd" clip-rule="evenodd" d="M12.3782 28.2028H12.4104C17.4576 28.2007 21.4914 27.2794 25.8878 25.121C26.7078 24.716 28.2673 23.7198 28.9524 22.758C30.0988 21.1503 30.258 19.1578 29.3977 17.133C28.5051 15.0454 26.5104 14.0371 23.7561 14.2699C23.5888 12.2856 22.3054 10.4086 20.3651 9.34756C18.6625 8.41209 16.0956 8.15696 13.3312 8.64495C12.9883 8.71209 12.7248 8.98921 12.6736 9.33649C12.6224 9.68378 12.7947 10.0258 13.1035 10.1899C13.481 10.4066 13.7486 10.7749 13.8389 11.2023C13.9546 11.622 13.8865 12.0714 13.6516 12.4374C13.3669 12.8459 12.8736 13.1332 12.3471 13.4399C12.3333 13.4479 12.3195 13.456 12.3056 13.464L12.2311 13.5086C11.8563 13.7252 11.4654 13.9297 11.0504 14.1444C9.78907 14.8004 8.35651 15.5456 7.18184 16.8779C6.08777 18.1211 4.87282 20.146 5.29594 22.7884C5.66868 25.1189 6.96021 26.7874 9.02745 27.6176C9.8878 27.9618 11.4795 28.2007 12.3782 28.2028ZM15.4343 10.812C15.3724 10.5616 15.2839 10.3186 15.1703 10.0872C16.9394 9.97376 18.519 10.2248 19.5728 10.8019C21.0315 11.6017 22.0309 13.0454 22.1155 14.5033C22.1109 14.8926 22.2551 15.2687 22.5185 15.5542C22.8145 15.8486 23.2269 15.9929 23.6408 15.947C25.8289 15.6919 27.2554 16.3094 27.8821 17.7835C28.3233 18.8202 28.6336 20.3591 27.6121 21.7947C27.201 22.3718 25.9921 23.2283 25.164 23.6332C20.9509 25.7006 17.2476 26.5449 12.412 26.5449H12.3797C11.6624 26.5449 10.2782 26.3364 9.63751 26.0792C8.09413 25.4617 7.20759 24.2994 6.9235 22.5257C6.60314 20.5272 7.55818 18.9498 8.41651 17.9759C9.38968 16.8764 10.6187 16.2345 11.8075 15.6149C12.2206 15.4023 12.6517 15.1796 13.0547 14.9427L13.1232 14.9022C13.7639 14.5316 14.4913 14.1105 14.991 13.3998C15.5049 12.6425 15.6666 11.6984 15.4343 10.812Z" fill="#1A1A1A"/>
<path d="M15.8168 36.2227C15.4816 36.2223 15.1799 36.0183 15.0532 35.7064C14.9665 35.4897 14.215 33.5358 14.9605 32.1184C15.3166 31.4634 15.9497 31.0067 16.6812 30.8772C17.3626 30.7075 18.0839 30.8564 18.6437 31.2822C19.9009 32.252 20.0541 34.3801 20.0541 34.6211C20.0774 35.0779 19.7279 35.4673 19.2733 35.4908C18.8187 35.5142 18.4313 35.163 18.4079 34.7061C18.3777 34.1898 18.152 32.9931 17.6362 32.5963C17.462 32.4685 17.2379 32.431 17.0318 32.495C16.7769 32.5237 16.5517 32.6746 16.4273 32.9C16.0949 33.5277 16.4434 34.7223 16.5905 35.0949C16.692 35.3504 16.661 35.6398 16.5076 35.8677C16.3543 36.0956 16.0986 36.2323 15.8249 36.2329L15.8168 36.2227Z" fill="#1A1A1A"/>
<path d="M41.9893 52.3391C45.9344 50.5795 47.5906 45.4283 47.4798 41.4435C47.4274 39.5874 47.1196 37.7476 46.5651 35.9764C46.1299 34.5914 45.5435 33.2571 45.2715 31.8215C44.9995 30.3859 45.0882 28.7842 45.8981 27.6159C46.7081 26.4476 48.3825 25.9677 49.4302 26.8769C49.4302 26.8769 56.3291 30.0498 54.9952 40.751C53.3652 53.8152 43.031 55.1374 43.031 55.1374L41.9893 52.3391Z" fill="#FF9AC9"/>
<path d="M23.1662 34.6349C22.8315 34.6348 22.5299 34.4317 22.4025 34.1206C22.3159 33.9019 21.5644 31.9479 22.3099 30.5306C22.6655 29.8741 23.2984 29.4152 24.0305 29.2833C24.712 29.1139 25.4331 29.2627 25.993 29.6882C27.2503 30.6561 27.4034 32.7862 27.4034 33.0251C27.4189 33.3207 27.2763 33.602 27.0294 33.7632C26.7825 33.9245 26.4687 33.9411 26.2063 33.8068C25.9439 33.6725 25.7728 33.4077 25.7573 33.1122C25.7271 32.5959 25.5014 31.3972 24.9836 31.0023C24.8097 30.8736 24.5851 30.836 24.3791 30.9011C24.124 30.9291 23.8985 31.0802 23.7747 31.3061C23.4422 31.9317 23.7888 33.1284 23.9379 33.501C24.0406 33.7562 24.0101 34.0461 23.8564 34.2741C23.7028 34.5021 23.4462 34.6381 23.1722 34.6369L23.1662 34.6349Z" fill="#1A1A1A"/>
<path d="M42.7029 55.6576C42.2713 55.6545 41.9152 55.3171 41.8866 54.8843C41.858 54.4515 42.1666 54.0699 42.5941 54.0094C45.9469 53.5368 48.9715 51.7341 50.992 49.0041C53.7262 45.3209 56.684 35.7657 51.4957 29.3167C49.6823 27.0671 45.8803 25.5201 43.0938 26.8018C42.6747 27.0043 41.8526 27.5065 41.4396 28.1909C40.69 29.4321 40.7424 30.8069 41.5866 32.0623C43.9702 35.6017 44.3269 41.3927 43.0353 43.8286C42.4309 44.9585 41.3408 45.6509 40.1621 45.6104C39.6195 45.5952 39.0905 45.4359 38.6288 45.1488C38.2855 44.8895 38.1979 44.4086 38.4276 44.0439C38.6572 43.6792 39.1271 43.5529 39.5073 43.7537C39.7152 43.8794 39.9518 43.9492 40.1944 43.9562C40.7424 43.9703 41.2623 43.6322 41.5705 43.0511C42.0581 42.1318 42.2334 40.3783 42.0259 38.4729C41.7982 36.3631 41.1353 34.3666 40.2125 32.9937C39.0036 31.1977 38.9331 29.1344 40.0211 27.3242C40.7686 26.0871 42.1327 25.4128 42.3986 25.2994C44.0327 24.5462 46.0455 24.4895 48.0705 25.1354C49.9024 25.711 51.5326 26.8006 52.7691 28.2759C56.011 32.3073 56.2407 37.0556 55.8639 40.3277C55.3723 44.5798 53.702 48.1131 52.3017 49.9982C50.0185 53.0823 46.6015 55.119 42.8137 55.6536L42.7029 55.6576Z" fill="#1A1A1A"/>
<path d="M19.1578 37.3985C20.8731 36.8364 22.6312 36.4158 24.4146 36.1411C25.2025 36.0224 25.9585 36.4999 26.1937 37.2649C26.9593 39.7979 28.0897 45.2508 23.9632 46.1356C19.8973 47.0063 18.4969 41.7742 18.0577 39.2047C17.9278 38.4117 18.3961 37.643 19.1578 37.3985Z" fill="white"/>
<path fill-rule="evenodd" clip-rule="evenodd" d="M20.6869 46.3325C21.3909 46.8193 22.226 47.0785 23.0806 47.0756C23.435 47.0729 23.7882 47.0329 24.1344 46.9561C25.4198 46.6807 26.385 46.0085 27.0015 44.9556C28.2971 42.7465 27.7067 39.4298 26.9814 37.0345C26.6345 35.8727 25.4883 35.146 24.2955 35.3316C22.4624 35.6124 20.6551 36.0431 18.8917 36.6194C17.7453 37.0002 17.0464 38.1642 17.2456 39.361C17.6526 41.7503 18.5814 44.8989 20.6869 46.3325ZM18.8693 39.0704C18.8013 38.6833 19.0286 38.3052 19.4012 38.1856H19.4032C21.079 37.6417 22.7959 37.2354 24.5371 36.9707C24.9218 36.9094 25.2925 37.1428 25.4055 37.5174C26.2819 40.4109 26.3464 42.8164 25.5828 44.1163C25.1921 44.7658 24.5371 45.21 23.7916 45.3312C23.0445 45.5251 22.2505 45.3872 21.6115 44.9526C20.3623 44.1021 19.3629 41.9578 18.8693 39.0704Z" fill="#1A1A1A"/>
<path d="M21.5412 41.6819C21.3188 41.1129 21.1489 40.5246 21.0334 39.9244C20.9335 39.4857 21.1876 39.0439 21.6157 38.9119C22.0046 38.8107 22.4217 38.7095 22.8649 38.6143C23.3126 38.5362 23.7425 38.8248 23.8421 39.2703C23.9686 39.7529 24.0635 40.2433 24.1262 40.7383C24.2955 42.2225 24.2129 43.239 23.3989 43.4496C22.6191 43.6581 21.9784 42.751 21.5412 41.6819Z" fill="#1A1A1A"/>
<path d="M33.1145 65.5231C32.9412 65.5231 32.772 65.5231 32.6068 65.5231C29.2984 65.4178 26.7758 63.8465 25.313 60.9793C23.9691 58.3471 23.9248 55.4232 23.9429 54.589C23.9535 54.1316 24.331 53.7695 24.7861 53.7801C25.2412 53.7907 25.6016 54.1701 25.591 54.6275C25.5709 55.5488 25.591 63.642 32.6592 63.8688C35.3752 63.9538 38.8025 63.2856 40.3358 61.5929C42.0424 59.7078 42.3506 56.9358 41.9013 55.0324C41.4198 52.9894 40.5917 51.732 39.3686 51.1853C39.0196 51.0439 38.6486 50.9651 38.2726 50.9524C37.0455 50.8734 35.2986 51.4404 33.721 52.4366C33.4717 52.6082 33.149 52.6289 32.88 52.4906C32.611 52.3523 32.4389 52.0772 32.4315 51.7736C32.4241 51.4701 32.5826 51.1868 32.8445 51.0354C34.7284 49.8448 36.7977 49.1949 38.3814 49.3001C38.9519 49.3229 39.5137 49.4491 40.0396 49.6727C41.7401 50.432 42.9047 52.1025 43.5051 54.6497C44.1781 57.4845 43.4125 60.6554 41.5548 62.7085C39.6568 64.7961 35.9373 65.5231 33.1145 65.5231Z" fill="#1A1A1A"/>
</g>
<g style="mix-blend-mode:saturation" opacity="0.2">
<rect width="56" height="56" rx="28" fill="white"/>
</g>
<g style="mix-blend-mode:hue" opacity="0.2">
<rect width="56" height="56" rx="28" fill="white"/>
</g>
</svg>
