<svg width="36" height="36" viewBox="0 0 36 36" fill="none" xmlns="http://www.w3.org/2000/svg">
<g opacity="0.5">
<mask id="mask0_1529_117875" style="mask-type:alpha" maskUnits="userSpaceOnUse" x="2" y="2" width="32" height="32">
<rect x="2" y="2" width="32" height="32" fill="#EEEEEE"/>
</mask>
<g mask="url(#mask0_1529_117875)">
<path d="M6.91667 14.3333C6.91667 8.21217 11.8788 3.25 18 3.25C24.1212 3.25 29.0833 8.21218 29.0833 14.3333V22.013C29.0833 23.1996 29.5555 24.3375 30.3957 25.1755C31.3471 26.1245 30.675 27.75 29.3312 27.75H6.66876C5.32498 27.75 4.6529 26.1245 5.60431 25.1755C6.44448 24.3375 6.91667 23.1996 6.91667 22.013V14.3333Z" stroke="#EEEEEE" stroke-width="2.5"/>
<path d="M14.25 29C14.25 31.0711 15.9289 32.75 18 32.75C20.0711 32.75 21.75 31.0711 21.75 29V27.75H14.25V29Z" stroke="#EEEEEE" stroke-width="2.5"/>
</g>
</g>
</svg>
