<svg width="36" height="36" viewBox="0 0 36 36" fill="none" xmlns="http://www.w3.org/2000/svg">
<mask id="mask0_1570_162662" style="mask-type:alpha" maskUnits="userSpaceOnUse" x="2" y="2" width="32" height="32">
<rect x="2" y="2" width="32" height="32" fill="#EEEEEE"/>
</mask>
<g mask="url(#mask0_1570_162662)">
<mask id="path-2-inside-1_1570_162662" fill="white">
<path fill-rule="evenodd" clip-rule="evenodd" d="M13.4358 5.04762C13.4358 3.36447 14.8002 2 16.4834 2H19.5149C21.1981 2 22.5625 3.36446 22.5625 5.04762V7.72546L24.6488 8.77047C24.6824 8.78727 24.7158 8.80427 24.7491 8.82146L26.912 7.5705C28.369 6.72781 30.2315 7.22686 31.072 8.68515L32.5918 11.3221C33.4322 12.7804 32.9324 14.6458 31.4754 15.4884L29.9076 16.3952C30.0983 17.4593 30.0989 18.5489 29.9093 19.613L31.4754 20.5189C32.9324 21.3615 33.4322 23.2269 32.5918 24.6852L31.072 27.3221C30.2315 28.7804 28.3691 29.2795 26.912 28.4368L24.7588 27.1914C24.7223 27.2103 24.6856 27.229 24.6488 27.2474L22.5625 28.2924V30.9524C22.5625 32.6355 21.1981 34 19.5149 34H16.4834C14.8002 34 13.4358 32.6355 13.4358 30.9524V28.2969L11.3405 27.2474C11.3055 27.2299 11.2707 27.2122 11.2361 27.1943L9.0877 28.4368C7.63069 29.2795 5.76821 28.7804 4.92775 27.3221L3.40796 24.6852C2.5675 23.2269 3.06731 21.3615 4.52432 20.5189L6.08101 19.6185C5.89006 18.5508 5.89063 17.4573 6.08273 16.3898L4.52433 15.4884C3.06732 14.6458 2.56752 12.7804 3.40798 11.3221L4.92777 8.68515C5.76823 7.22686 7.6307 6.72781 9.08771 7.5705L11.2457 8.81861C11.2772 8.80239 11.3088 8.78634 11.3405 8.77047L13.4358 7.72096V5.04762Z"/>
</mask>
<path d="M22.5625 7.72546H20.0228C20.0228 8.68678 20.5656 9.5657 21.4251 9.99622L22.5625 7.72546ZM24.6488 8.77047L23.5115 11.0412L23.5115 11.0412L24.6488 8.77047ZM24.7491 8.82146L23.5839 11.0781C24.353 11.4752 25.2714 11.4533 26.0206 11.0199L24.7491 8.82146ZM26.912 7.5705L25.6405 5.37204L25.6405 5.37204L26.912 7.5705ZM31.072 8.68515L28.8716 9.95332L28.8716 9.95332L31.072 8.68515ZM32.5918 11.3221L34.7922 10.054L34.7922 10.054L32.5918 11.3221ZM31.4754 15.4884L30.2039 13.29L30.2039 13.29L31.4754 15.4884ZM29.9076 16.3952L28.636 14.1968C27.7101 14.7323 27.219 15.7906 27.4077 16.8435L29.9076 16.3952ZM29.9093 19.613L27.409 19.1675C27.2215 20.2195 27.7127 21.2765 28.6378 21.8115L29.9093 19.613ZM31.4754 20.5189L30.2039 22.7173L30.2039 22.7173L31.4754 20.5189ZM32.5918 24.6852L34.7922 25.9533L34.7922 25.9533L32.5918 24.6852ZM31.072 27.3221L28.8716 26.054L28.8716 26.054L31.072 27.3221ZM26.912 28.4368L28.1836 26.2383L28.1836 26.2383L26.912 28.4368ZM24.7588 27.1914L26.0303 24.9929C25.2801 24.5591 24.3605 24.5377 23.5909 24.9362L24.7588 27.1914ZM24.6488 27.2474L25.7862 29.5182L25.7862 29.5182L24.6488 27.2474ZM22.5625 28.2924L21.4251 26.0216C20.5656 26.4522 20.0228 27.3311 20.0228 28.2924H22.5625ZM13.4358 28.2969H15.9754C15.9754 27.3356 15.4327 26.4567 14.5731 26.0261L13.4358 28.2969ZM11.3405 27.2474L10.203 29.5181L10.2031 29.5181L11.3405 27.2474ZM11.2361 27.1943L12.4024 24.9382C11.6331 24.5405 10.7142 24.5622 9.96453 24.9958L11.2361 27.1943ZM9.0877 28.4368L10.3592 30.6353L10.3592 30.6353L9.0877 28.4368ZM4.92775 27.3221L7.12815 26.054L7.12815 26.054L4.92775 27.3221ZM3.40796 24.6852L1.20756 25.9533L1.20757 25.9533L3.40796 24.6852ZM4.52432 20.5189L3.2528 18.3204L3.2528 18.3204L4.52432 20.5189ZM6.08101 19.6185L7.35253 21.817C8.2781 21.2816 8.76926 20.2239 8.58103 19.1714L6.08101 19.6185ZM6.08273 16.3898L8.58227 16.8395C8.7718 15.7862 8.28068 14.7271 7.35425 14.1913L6.08273 16.3898ZM4.52433 15.4884L3.25281 17.6869L3.25281 17.6869L4.52433 15.4884ZM3.40798 11.3221L5.60838 12.5903L3.40798 11.3221ZM4.92777 8.68515L2.72737 7.41699L2.72737 7.41699L4.92777 8.68515ZM9.08771 7.5705L7.81619 9.76896L7.81619 9.76896L9.08771 7.5705ZM11.2457 8.81861L9.97419 11.0171C10.7229 11.4501 11.6406 11.4723 12.4094 11.076L11.2457 8.81861ZM11.3405 8.77047L10.2031 6.49971L10.2031 6.49971L11.3405 8.77047ZM13.4358 7.72096L14.5731 9.99172C15.4327 9.5612 15.9754 8.68228 15.9754 7.72096H13.4358ZM16.4834 -0.539682C13.3976 -0.539682 10.8961 1.96184 10.8961 5.04762H15.9754C15.9754 4.76709 16.2029 4.53968 16.4834 4.53968V-0.539682ZM19.5149 -0.539682H16.4834V4.53968H19.5149V-0.539682ZM25.1022 5.04762C25.1022 1.96184 22.6007 -0.539682 19.5149 -0.539682V4.53968C19.7954 4.53968 20.0228 4.76709 20.0228 5.04762H25.1022ZM25.1022 7.72546V5.04762H20.0228V7.72546H25.1022ZM25.7862 6.49971L23.6999 5.4547L21.4251 9.99622L23.5115 11.0412L25.7862 6.49971ZM25.9143 6.56486C25.8718 6.5429 25.8291 6.52118 25.7862 6.49969L23.5115 11.0412C23.5357 11.0534 23.5598 11.0656 23.5839 11.0781L25.9143 6.56486ZM26.0206 11.0199L28.1835 9.76896L25.6405 5.37204L23.4776 6.623L26.0206 11.0199ZM28.1835 9.76896C28.4251 9.62927 28.7323 9.71158 28.8716 9.95332L33.2724 7.41699C31.7308 4.74214 28.313 3.82636 25.6405 5.37204L28.1835 9.76896ZM28.8716 9.95332L30.3914 12.5903L34.7922 10.054L33.2724 7.41699L28.8716 9.95332ZM30.3914 12.5903C30.5322 12.8347 30.448 13.1488 30.2039 13.29L32.7469 17.6869C35.4168 16.1427 36.3323 12.7262 34.7922 10.054L30.3914 12.5903ZM30.2039 13.29L28.636 14.1968L31.1791 18.5937L32.7469 17.6869L30.2039 13.29ZM32.4096 20.0586C32.6519 18.6988 32.6512 17.3066 32.4074 15.947L27.4077 16.8435C27.5455 17.6119 27.5459 18.3989 27.409 19.1675L32.4096 20.0586ZM32.7469 18.3204L31.1808 17.4146L28.6378 21.8115L30.2039 22.7173L32.7469 18.3204ZM34.7922 25.9533C36.3323 23.2811 35.4168 19.8646 32.7469 18.3204L30.2039 22.7173C30.4481 22.8585 30.5322 23.1726 30.3914 23.417L34.7922 25.9533ZM33.2724 28.5903L34.7922 25.9533L30.3914 23.417L28.8716 26.054L33.2724 28.5903ZM25.6405 30.6353C28.313 32.1809 31.7308 31.2652 33.2724 28.5903L28.8716 26.054C28.7323 26.2957 28.4251 26.378 28.1836 26.2383L25.6405 30.6353ZM23.4872 29.3899L25.6405 30.6353L28.1836 26.2383L26.0303 24.9929L23.4872 29.3899ZM25.7862 29.5182C25.8332 29.4946 25.88 29.4708 25.9266 29.4467L23.5909 24.9362C23.5645 24.9498 23.5381 24.9633 23.5115 24.9766L25.7862 29.5182ZM23.6999 30.5632L25.7862 29.5182L23.5115 24.9766L21.4251 26.0216L23.6999 30.5632ZM25.1022 30.9524V28.2924H20.0228V30.9524H25.1022ZM19.5149 36.5397C22.6007 36.5397 25.1022 34.0382 25.1022 30.9524H20.0228C20.0228 31.2329 19.7954 31.4603 19.5149 31.4603V36.5397ZM16.4834 36.5397H19.5149V31.4603H16.4834V36.5397ZM10.8961 30.9524C10.8961 34.0382 13.3976 36.5397 16.4834 36.5397V31.4603C16.2029 31.4603 15.9754 31.2329 15.9754 30.9524H10.8961ZM10.8961 28.2969V30.9524H15.9754V28.2969H10.8961ZM10.2031 29.5181L12.2984 30.5677L14.5731 26.0261L12.4778 24.9766L10.2031 29.5181ZM10.0697 29.4503C10.114 29.4732 10.1584 29.4958 10.203 29.5181L12.4779 24.9766C12.4526 24.964 12.4274 24.9512 12.4024 24.9382L10.0697 29.4503ZM9.96453 24.9958L7.81618 26.2383L10.3592 30.6353L12.5076 29.3927L9.96453 24.9958ZM7.81618 26.2383C7.57465 26.378 7.26747 26.2957 7.12815 26.054L2.72735 28.5903C4.26896 31.2652 7.68672 32.1809 10.3592 30.6353L7.81618 26.2383ZM7.12815 26.054L5.60836 23.417L1.20757 25.9533L2.72735 28.5903L7.12815 26.054ZM5.60836 23.417C5.46753 23.1726 5.55169 22.8585 5.79584 22.7173L3.2528 18.3204C0.582921 19.8646 -0.33253 23.2811 1.20756 25.9533L5.60836 23.417ZM5.79584 22.7173L7.35253 21.817L4.80949 17.4201L3.2528 18.3204L5.79584 22.7173ZM3.58319 15.94C3.33773 17.3041 3.33699 18.7013 3.58099 20.0656L8.58103 19.1714C8.44312 18.4003 8.44353 17.6105 8.58227 16.8395L3.58319 15.94ZM3.25281 17.6869L4.81121 18.5882L7.35425 14.1913L5.79585 13.29L3.25281 17.6869ZM1.20758 10.054C-0.332513 12.7262 0.582938 16.1427 3.25281 17.6869L5.79585 13.29C5.55171 13.1488 5.46754 12.8347 5.60838 12.5903L1.20758 10.054ZM2.72737 7.41699L1.20758 10.054L5.60838 12.5903L7.12816 9.95331L2.72737 7.41699ZM10.3592 5.37204C7.68674 3.82635 4.26898 4.74214 2.72737 7.41699L7.12816 9.95331C7.26749 9.71158 7.57467 9.62927 7.81619 9.76896L10.3592 5.37204ZM12.5172 6.62016L10.3592 5.37204L7.81619 9.76896L9.97419 11.0171L12.5172 6.62016ZM10.2031 6.49971C10.1626 6.51999 10.1222 6.54048 10.082 6.56121L12.4094 11.076C12.4321 11.0643 12.4549 11.0527 12.4778 11.0412L10.2031 6.49971ZM12.2984 5.4502L10.2031 6.49971L12.4778 11.0412L14.5731 9.99172L12.2984 5.4502ZM10.8961 5.04762V7.72096H15.9754V5.04762H10.8961Z" fill="#EEEEEE" mask="url(#path-2-inside-1_1570_162662)"/>
<circle cx="18" cy="18" r="4.25" stroke="#EEEEEE" stroke-width="2.5"/>
</g>
</svg>
